<svg width="33" height="33" viewBox="0 0 33 33" fill="none" xmlns="http://www.w3.org/2000/svg">
<path d="M31.8701 7.32L26.0001 1.42C25.6122 1.03407 25.0872 0.817413 24.5401 0.817413C23.9929 0.817413 23.468 1.03407 23.0801 1.42L2.27006 22.2L0.370057 30.4C0.304513 30.6998 0.30676 31.0104 0.376633 31.3091C0.446506 31.6079 0.582241 31.8873 0.77392 32.1269C0.9656 32.3665 1.20838 32.5603 1.48453 32.694C1.76068 32.8278 2.06323 32.8981 2.37006 32.9C2.51297 32.9155 2.65714 32.9155 2.80006 32.9L11.0901 31L31.8701 10.24C32.256 9.85211 32.4726 9.32718 32.4726 8.78C32.4726 8.23282 32.256 7.70789 31.8701 7.32ZM10.0901 29.2L2.32006 30.83L4.09006 23.21L19.6601 7.7L25.6601 13.7L10.0901 29.2ZM27.0001 12.25L21.0001 6.25L24.4801 2.79L30.3801 8.79L27.0001 12.25Z" fill="black"/>
</svg>
