<svg width="24" height="24" viewBox="0 0 24 24" fill="none" xmlns="http://www.w3.org/2000/svg">
<path d="M22 15C20.5 18 20.5 20.833 20.5 23.5H14.5C14.5 20.833 14.5 18 13 15M13 11.5H9.854C9.4543 11.5 9.06376 11.3803 8.73276 11.1562C8.40176 10.9322 8.14549 10.6141 7.997 10.243L6.5 6.5H5.91C5.30992 6.49985 4.7298 6.71554 4.27559 7.1077C3.82137 7.49986 3.52337 8.04231 3.436 8.636L2.5 15V24M6.5 15V24M16.25 14C16.5815 14 16.8995 13.8683 17.1339 13.6339C17.3683 13.3995 17.5 13.0815 17.5 12.75C17.5 12.4185 17.3683 12.1005 17.1339 11.8661C16.8995 11.6317 16.5815 11.5 16.25 11.5C15.9185 11.5 15.6005 11.6317 15.3661 11.8661C15.1317 12.1005 15 12.4185 15 12.75C15 13.0815 15.1317 13.3995 15.3661 13.6339C15.6005 13.8683 15.9185 14 16.25 14ZM5.85 4.5C5.85 4.5 4.25 3.5 4.25 2.25C4.25 1.7864 4.43416 1.34179 4.76198 1.01398C5.08979 0.686163 5.5344 0.501999 5.998 0.501999C6.4616 0.501999 6.90621 0.686163 7.23402 1.01398C7.56184 1.34179 7.746 1.7864 7.746 2.25C7.746 3.5 6.15 4.5 6.15 4.5H5.85Z" stroke="#EF4343"/>
</svg>
